<svg width="280" height="442" viewBox="0 0 280 442" fill="none" xmlns="http://www.w3.org/2000/svg">
<path d="M279 155C279 178.196 216.544 197 139.5 197C62.4563 197 0 178.196 0 155C0 131.804 62.4563 113 139.5 113C216.544 113 279 131.804 279 155Z" fill="#C19A6B"/>
<path d="M279 203.669C279 253.926 291 441.669 145 441.669C-0.999649 441.669 0.000182524 253.926 0.000182524 203.669C0.000182524 153.411 83.7006 220.528 138 220.669C193.463 220.812 279 153.411 279 203.669Z" fill="#5E463A"/>
<path d="M156.284 70.7024C217.917 104.257 174.28 157.748 167.615 159.988C160.951 162.229 186.577 119.397 119.719 82.9981C52.8596 46.5991 105.816 2.53331 112.481 0.292356C119.145 -1.9486 89.4248 34.3034 156.284 70.7024Z" fill="#F2EFE9"/>
<path d="M100.665 89.8458C157.378 111.981 132.723 162.714 126.181 165.141C119.638 167.569 126.29 127.177 64.7687 103.165C3.24724 79.1529 57.0695 38.295 63.6117 35.8676C70.1539 33.4401 39.1433 65.834 100.665 89.8458Z" fill="#F2EFE9"/>
<path d="M279 155C279 178.196 216.544 197 139.5 197C62.4563 197 0 178.196 0 155C0 131.804 62.4563 113 139.5 113C216.544 113 279 131.804 279 155Z" fill="#5E463A"/>
<path d="M279 203.669C279 253.926 291 441.669 145 441.669C-0.999649 441.669 0.000182524 253.926 0.000182524 203.669C0.000182524 153.411 83.7006 220.528 138 220.669C193.463 220.812 279 153.411 279 203.669Z" fill="#C19A6B"/>
<path d="M156.284 70.7024C217.917 104.257 174.28 157.748 167.615 159.988C160.951 162.229 186.577 119.397 119.719 82.9981C52.8596 46.5991 105.816 2.53331 112.481 0.292356C119.145 -1.9486 89.4248 34.3034 156.284 70.7024Z" fill="#F2EFE9"/>
<path d="M100.665 89.8458C157.378 111.981 132.723 162.714 126.181 165.141C119.638 167.569 126.29 127.177 64.7687 103.165C3.24724 79.1529 57.0695 38.295 63.6117 35.8676C70.1539 33.4401 39.1433 65.834 100.665 89.8458Z" fill="#F2EFE9"/>
</svg>
